<svg xmlns="http://www.w3.org/2000/svg" width="1600" height="600" viewBox="0 0 1600 600"><rect width="100%" height="100%" fill="#FFA500"/><path fill="#FFFFFF" d="M609.8 300q0 23.85-7.95 43.8t-22.35 34.35-34.65 22.35-45 7.95H417.2v-216.9h82.65q24.75 0 45 8.02 20.25 8.03 34.65 22.35 14.4 14.33 22.35 34.28t7.95 43.8m-41.4 0q0-17.85-4.72-32.02-4.73-14.18-13.65-24-8.93-9.83-21.6-15.08-12.68-5.25-28.58-5.25H457.7v152.7h42.15q15.9 0 28.58-5.25 12.67-5.25 21.6-15.07 8.92-9.83 13.65-24 4.72-14.18 4.72-32.03m213.75-76.35h-96.3v60.15h75.9v31.05h-75.9v61.35h96.3v32.25h-136.8v-216.9h136.8zm228.3 76.35q0 23.85-7.95 43.8t-22.35 34.35-34.65 22.35-45 7.95h-82.65v-216.9h82.65q24.75 0 45 8.02 20.25 8.03 34.65 22.35 14.4 14.33 22.35 34.28t7.95 43.8m-41.4 0q0-17.85-4.72-32.02-4.73-14.18-13.65-24-8.93-9.83-21.6-15.08-12.68-5.25-28.58-5.25h-42.15v152.7h42.15q15.9 0 28.58-5.25 12.67-5.25 21.6-15.07 8.92-9.83 13.65-24 4.72-14.18 4.72-32.03m213.75-76.35h-96.3v60.15h75.9v31.05h-75.9v61.35h96.3v32.25H1046v-216.9h136.8z"/></svg>